<svg xmlns="http://www.w3.org/2000/svg" xmlns:xlink="http://www.w3.org/1999/xlink" version="1.1" x="0px" y="0px" viewBox="0 0 100 100" enable-background="new 0 0 100 100" xml:space="preserve"><path d="M69.653,51.656l-0.252,1.661c-0.634,4.16-2.535,7.932-5.504,10.901c-7.645,7.645-20.109,7.621-27.784-0.054  c-7.671-7.671-7.692-20.131-0.047-27.776c6.715-6.715,17.244-7.656,25.031-2.24l0.796,0.554l-8.642,8.642l25.618,1.392l-1.39-25.62  l-7.813,7.813l-0.568-0.46c-12.172-9.843-29.707-8.911-40.784,2.166c-11.913,11.913-11.887,31.323,0.06,43.27  c11.951,11.951,31.36,11.977,43.274,0.063c4.874-4.874,7.886-11.062,8.709-17.902l0.246-2.043L69.653,51.656z"></path></svg>