<?xml version="1.0" encoding="utf-8"?>
<!-- Generator: Adobe Illustrator 16.0.0, SVG Export Plug-In . SVG Version: 6.00 Build 0)  -->
<!DOCTYPE svg PUBLIC "-//W3C//DTD SVG 1.1//EN" "http://www.w3.org/Graphics/SVG/1.1/DTD/svg11.dtd">
<svg version="1.1" id="Layer_1" xmlns="http://www.w3.org/2000/svg" xmlns:xlink="http://www.w3.org/1999/xlink" x="0px" y="0px"
	 width="612px" height="792px" viewBox="0 0 612 792" enable-background="new 0 0 612 792" xml:space="preserve">
<path fill="#FFCC00" d="M426.276,406.135l-1.542,10.165c-3.88,25.459-15.515,48.544-33.685,66.714
	c-46.787,46.788-123.067,46.641-170.038-0.33c-46.947-46.946-47.075-123.202-0.288-169.989
	c41.096-41.096,105.533-46.854,153.19-13.708l4.871,3.39l-52.889,52.889l156.782,8.519l-8.507-156.794l-47.816,47.816l-3.476-2.815
	c-74.493-60.239-181.807-54.535-249.598,13.256c-72.908,72.908-72.749,191.697,0.367,264.812
	c73.14,73.14,191.923,73.299,264.836,0.386c29.829-29.829,48.263-67.699,53.3-109.561l1.505-12.503L426.276,406.135z"/>
</svg>
