<?xml version="1.0" encoding="utf-8"?>
<!-- Generator: Adobe Illustrator 16.0.0, SVG Export Plug-In . SVG Version: 6.00 Build 0)  -->
<!DOCTYPE svg PUBLIC "-//W3C//DTD SVG 1.1//EN" "http://www.w3.org/Graphics/SVG/1.1/DTD/svg11.dtd">
<svg version="1.1" id="Layer_1" xmlns="http://www.w3.org/2000/svg" xmlns:xlink="http://www.w3.org/1999/xlink" x="0px" y="0px"
	 viewBox="0 0 612 792" enable-background="new 0 0 612 792" xml:space="preserve">
<path fill="#FFCC00" d="M570.513,307.229l-29.449-94.701c-7.369-27.038-12.105-27.038-27.038-27.038H410.095h-103.93
	c-14.933,0-19.669,0-27.038,27.038l-10.502,33.783H202.07c-14.933,0-19.67,0-27.038,27.038l-10.502,33.782H97.975
	c-14.933,0-19.67,0-27.038,27.038l-29.45,94.701c-6.261,1.989-10.82,8.122-10.82,15.393v99.456c0,7.025,4.266,12.98,10.196,15.165
	v20.588c0,14.933,12.105,27.038,27.038,27.038h6.083c14.933,0,27.038-12.105,27.038-27.038v-13.018
	c31.867,3.415,71.359,6.86,100.888,6.86c29.529,0,69.015-3.445,100.888-6.86v13.018c0,14.933,12.105,27.038,27.039,27.038h6.083
	c14.933,0,27.038-12.105,27.038-27.038v-20.588c5.93-2.191,10.195-8.146,10.195-15.165V508.92
	c11.659-1.016,23.128-2.148,33.746-3.286v13.017c0,14.934,12.105,27.039,27.038,27.039h6.083c14.934,0,27.038-12.105,27.038-27.039
	v-20.587c5.931-2.191,10.196-8.146,10.196-15.166v-34.792c11.658-1.016,23.128-2.154,33.746-3.292v13.017
	c0,14.933,12.105,27.038,27.038,27.038h6.083c14.933,0,27.038-12.105,27.038-27.038v-20.581c5.931-2.191,10.196-8.146,10.196-15.166
	v-99.456C581.339,315.357,576.773,309.218,570.513,307.229z M299.286,225.54c6.236-22.876,10.245-22.876,22.877-22.876h87.932
	h87.933c12.632,0,16.641,0,22.876,22.876l17.339,81.01h-90.95l-10.324-33.201c-7.368-27.038-12.105-27.038-27.038-27.038H306
	h-11.157L299.286,225.54z M195.191,286.36c6.236-22.877,10.245-22.877,22.876-22.877H306h87.932c12.632,0,16.641,0,22.877,22.877
	l17.338,81.004h-90.949l-10.324-33.201c-7.368-27.038-12.105-27.038-27.038-27.038h-103.93h-11.157L195.191,286.36z M102.577,501.49
	c-8.629,8.782-24.92,6.769-36.383-4.492c-11.469-11.267-13.77-27.516-5.141-36.298c8.629-8.782,24.92-6.769,36.383,4.492
	S111.207,492.702,102.577,501.49z M73.752,428.186l17.338-81.011c6.236-22.877,10.245-22.877,22.877-22.877h87.932h87.932
	c12.632,0,16.641,0,22.876,22.877l17.339,81.011H201.905H73.752z M338.02,496.717c-11.267,11.469-27.516,13.771-36.298,5.141
	c-8.782-8.629-6.768-24.921,4.492-36.383c11.268-11.47,27.516-13.771,36.298-5.142C351.294,468.956,349.28,485.248,338.02,496.717z
	 M442.115,435.896c-11.268,11.469-27.516,13.77-36.298,5.141s-6.769-24.921,4.492-36.383c11.267-11.47,27.516-13.771,36.298-5.142
	C455.39,408.136,453.376,424.428,442.115,435.896z M546.21,375.076c-11.267,11.469-27.516,13.77-36.298,5.141
	c-8.782-8.629-6.769-24.92,4.492-36.383c11.267-11.469,27.516-13.77,36.298-5.141C559.484,347.321,557.477,363.613,546.21,375.076z"
	/>
</svg>
